<?xml version="1.0" encoding="utf-8"?>
<!-- Generator: Adobe Illustrator 24.0.2, SVG Export Plug-In . SVG Version: 6.00 Build 0)  -->
<svg version="1.1" id="Capa_1" xmlns="http://www.w3.org/2000/svg" xmlns:xlink="http://www.w3.org/1999/xlink" x="0px" y="0px"
	 viewBox="0 0 657 466" style="enable-background:new 0 0 657 466;" xml:space="preserve">
<style type="text/css">
	.st0{filter:url(#a);}
	.st1{fill:#777777;}
	.st2{fill:url(#SVGID_1_);}
	.st3{opacity:0.1;fill:#2A2A2A;enable-background:new    ;}
	.st4{fill:#E8EAF6;}
	.st5{filter:url(#Adobe_OpacityMaskFilter);}
	.st6{fill-rule:evenodd;clip-rule:evenodd;fill:#FFFFFF;}
	.st7{mask:url(#f_4_);}
	.st8{fill-rule:evenodd;clip-rule:evenodd;fill:#5267DF;}
	.st9{opacity:0.245;fill-rule:evenodd;clip-rule:evenodd;fill:#FFFFFF;enable-background:new    ;}
	.st10{opacity:0.104;fill-rule:evenodd;clip-rule:evenodd;fill:#FFFFFF;enable-background:new    ;}
	.st11{opacity:0.75;fill-rule:evenodd;clip-rule:evenodd;fill:#FFFFFF;enable-background:new    ;}
	.st12{opacity:0.25;fill-rule:evenodd;clip-rule:evenodd;fill:#FFFFFF;enable-background:new    ;}
	.st13{filter:url(#Adobe_OpacityMaskFilter_1_);}
	.st14{mask:url(#f_3_);}
	.st15{opacity:0.5;fill-rule:evenodd;clip-rule:evenodd;fill:#242A45;enable-background:new    ;}
	.st16{fill-rule:evenodd;clip-rule:evenodd;fill:#F98E5D;}
	.st17{opacity:0.25;fill-rule:evenodd;clip-rule:evenodd;fill:#242A45;enable-background:new    ;}
	.st18{fill-rule:evenodd;clip-rule:evenodd;fill:#6AC6D6;}
	.st19{fill-rule:evenodd;clip-rule:evenodd;fill:#A47ED4;}
	.st20{fill-rule:evenodd;clip-rule:evenodd;fill:#EC7878;}
</style>
<filter  filterUnits="objectBoundingBox" height="126.9%" id="a" width="118%" x="-9%" y="-5.7%">
	<feOffset  dy="2" in="SourceAlpha" result="shadowOffsetOuter1"></feOffset>
	<feGaussianBlur  in="shadowOffsetOuter1" result="shadowBlurOuter1" stdDeviation="2"></feGaussianBlur>
	<feColorMatrix  in="shadowBlurOuter1" result="shadowMatrixOuter1" values="0 0 0 0 0 0 0 0 0 0 0 0 0 0 0 0 0 0 0.5 0">
		</feColorMatrix>
	<feMerge>
		<feMergeNode  in="shadowMatrixOuter1"></feMergeNode>
		<feMergeNode  in="SourceGraphic"></feMergeNode>
	</feMerge>
</filter>
<g transform="translate(39 9)" class="st0">
	<g transform="translate(.5 .5)">
		<g>
			<g>
				
					<image style="overflow:visible;" width="728" height="535" xlink:href="FE1BDFB404183D52.png"  transform="matrix(1 0 0 1 -75.14 -45.045)">
				</image>
			</g>
			<g>
				<path id="c_2_" class="st1" d="M26,0h526c14.4,0,26,11.6,26,26v333c0,14.4-11.6,26-26,26H26c-14.4,0-26-11.6-26-26V26
					C0,11.6,11.6,0,26,0z"/>
			</g>
		</g>
		
			<linearGradient id="SVGID_1_" gradientUnits="userSpaceOnUse" x1="-305.0449" y1="643.1807" x2="-306.0096" y2="643.6073" gradientTransform="matrix(574.23 0 0 -381.865 175736.4844 245883.8906)">
			<stop  offset="0" style="stop-color:#151515"/>
			<stop  offset="1" style="stop-color:#3D3D3D"/>
		</linearGradient>
		<path class="st2" d="M27,2h524.2c13.8,0,25,11.2,25,25v331.9c0,13.8-11.2,25-25,25H27c-13.8,0-25-11.2-25-25V27
			C2,13.2,13.2,2,27,2z"/>
		<g transform="translate(21.03 16.303)">
			<path class="st3" d="M38,0h461.5c2.8,0,5,2.2,5,5v343.8c0,2.8-2.2,5-5,5H38c-2.8,0-5-2.2-5-5V5C33,2.2,35.2,0,38,0z"/>
			<g>
				<path id="e_6_" class="st4" d="M8,3h520c4.4,0,8,3.6,8,8v330c0,4.4-3.6,8-8,8H8c-4.4,0-8-3.6-8-8V11C0,6.6,3.6,3,8,3z"/>
			</g>
			<defs>
				<filter id="Adobe_OpacityMaskFilter" filterUnits="userSpaceOnUse" x="-3.5" y="3.2" width="547" height="59">
					<feColorMatrix  type="matrix" values="1 0 0 0 0  0 1 0 0 0  0 0 1 0 0  0 0 0 1 0"/>
				</filter>
			</defs>
			<mask maskUnits="userSpaceOnUse" x="-3.5" y="3.2" width="547" height="59" id="f_4_">
				<g class="st5">
					<path id="e_5_" class="st6" d="M8,3h520c4.4,0,8,3.6,8,8v330c0,4.4-3.6,8-8,8H8c-4.4,0-8-3.6-8-8V11C0,6.6,3.6,3,8,3z"/>
				</g>
			</mask>
			<g class="st7">
				<path class="st8" d="M-3.5,3.2h547v59h-547L-3.5,3.2z"/>
				<g transform="translate(22.47 17.197)">
					<circle class="st9" cx="16" cy="16" r="16"/>
					<circle class="st10" cx="477" cy="16" r="16"/>
					<g transform="translate(47 6)">
						<path class="st11" d="M3,0h114c1.7,0,3,1.3,3,3l0,0c0,1.7-1.3,3-3,3H3C1.3,6,0,4.7,0,3l0,0C0,1.3,1.3,0,3,0z"/>
						<path class="st12" d="M3,14h58c1.7,0,3,1.3,3,3l0,0c0,1.7-1.3,3-3,3H3c-1.7,0-3-1.3-3-3l0,0C0,15.3,1.3,14,3,14z"/>
					</g>
				</g>
			</g>
			<defs>
				<filter id="Adobe_OpacityMaskFilter_1_" filterUnits="userSpaceOnUse" x="57" y="96" width="423" height="316">
					<feColorMatrix  type="matrix" values="1 0 0 0 0  0 1 0 0 0  0 0 1 0 0  0 0 0 1 0"/>
				</filter>
			</defs>
			<mask maskUnits="userSpaceOnUse" x="57" y="96" width="423" height="316" id="f_3_">
				<g class="st13">
					<path id="e_4_" class="st6" d="M8,3h520c4.4,0,8,3.6,8,8v330c0,4.4-3.6,8-8,8H8c-4.4,0-8-3.6-8-8V11C0,6.6,3.6,3,8,3z"/>
				</g>
			</mask>
			<g class="st14">
				<g transform="translate(57 96)">
					<path class="st6" d="M8,0h245c4.4,0,8,3.6,8,8v300c0,4.4-3.6,8-8,8H8c-4.4,0-8-3.6-8-8V8C0,3.6,3.6,0,8,0z"/>
					<path class="st6" d="M303,0h112c4.4,0,8,3.6,8,8v300c0,4.4-3.6,8-8,8H303c-4.4,0-8-3.6-8-8V8C295,3.6,298.6,0,303,0z"/>
					<path class="st15" d="M81.5,38.2h114c1.7,0,3,1.3,3,3l0,0c0,1.7-1.3,3-3,3h-114c-1.7,0-3-1.3-3-3l0,0
						C78.5,39.5,79.8,38.2,81.5,38.2z"/>
				</g>
			</g>
		</g>
	</g>
	<g transform="translate(110 135)">
		<circle class="st16" cx="16" cy="26" r="16"/>
		<path class="st17" d="M287,0h82c1.7,0,3,1.3,3,3l0,0c0,1.7-1.3,3-3,3h-82c-1.7,0-3-1.3-3-3l0,0C284,1.3,285.3,0,287,0z"/>
		<path class="st17" d="M287,20h82c1.7,0,3,1.3,3,3l0,0c0,1.7-1.3,3-3,3h-82c-1.7,0-3-1.3-3-3l0,0C284,21.3,285.3,20,287,20z"/>
		<path class="st17" d="M287,40h82c1.7,0,3,1.3,3,3l0,0c0,1.7-1.3,3-3,3h-82c-1.7,0-3-1.3-3-3l0,0C284,41.3,285.3,40,287,40z"/>
		<path class="st17" d="M287,60h82c1.7,0,3,1.3,3,3l0,0c0,1.7-1.3,3-3,3h-82c-1.7,0-3-1.3-3-3l0,0C284,61.3,285.3,60,287,60z"/>
		<path class="st17" d="M287,94h82c1.7,0,3,1.3,3,3l0,0c0,1.7-1.3,3-3,3h-82c-1.7,0-3-1.3-3-3l0,0C284,95.3,285.3,94,287,94z"/>
		<path class="st17" d="M287,114h82c1.7,0,3,1.3,3,3l0,0c0,1.7-1.3,3-3,3h-82c-1.7,0-3-1.3-3-3l0,0C284,115.3,285.3,114,287,114z"/>
		<path class="st17" d="M287,134h82c1.7,0,3,1.3,3,3l0,0c0,1.7-1.3,3-3,3h-82c-1.7,0-3-1.3-3-3l0,0C284,135.3,285.3,134,287,134z"/>
		<path class="st17" d="M50,30h58c1.7,0,3,1.3,3,3l0,0c0,1.7-1.3,3-3,3H50c-1.7,0-3-1.3-3-3l0,0C47,31.3,48.3,30,50,30z"/>
	</g>
	<g transform="translate(110 201)">
		<circle class="st18" cx="16" cy="16" r="16"/>
		<path class="st15" d="M50,6h114c1.7,0,3,1.3,3,3l0,0c0,1.7-1.3,3-3,3H50c-1.7,0-3-1.3-3-3l0,0C47,7.3,48.3,6,50,6z"/>
		<path class="st17" d="M50,20h58c1.7,0,3,1.3,3,3l0,0c0,1.7-1.3,3-3,3H50c-1.7,0-3-1.3-3-3l0,0C47,21.3,48.3,20,50,20z"/>
	</g>
	<g transform="translate(110 257)">
		<circle class="st19" cx="16" cy="16" r="16"/>
		<path class="st15" d="M50,6h114c1.7,0,3,1.3,3,3l0,0c0,1.7-1.3,3-3,3H50c-1.7,0-3-1.3-3-3l0,0C47,7.3,48.3,6,50,6z"/>
		<path class="st17" d="M50,20h58c1.7,0,3,1.3,3,3l0,0c0,1.7-1.3,3-3,3H50c-1.7,0-3-1.3-3-3l0,0C47,21.3,48.3,20,50,20z"/>
	</g>
	<g transform="translate(110 313)">
		<circle class="st20" cx="16" cy="16" r="16"/>
		<path class="st15" d="M50,6h114c1.7,0,3,1.3,3,3l0,0c0,1.7-1.3,3-3,3H50c-1.7,0-3-1.3-3-3l0,0C47,7.3,48.3,6,50,6z"/>
		<path class="st17" d="M50,20h58c1.7,0,3,1.3,3,3l0,0c0,1.7-1.3,3-3,3H50c-1.7,0-3-1.3-3-3l0,0C47,21.3,48.3,20,50,20z"/>
	</g>
</g>
</svg>
