<?xml version="1.0" encoding="utf-8"?>
<!-- Generator: Adobe Illustrator 24.0.2, SVG Export Plug-In . SVG Version: 6.00 Build 0)  -->
<svg version="1.1" id="Capa_1" xmlns="http://www.w3.org/2000/svg" xmlns:xlink="http://www.w3.org/1999/xlink" x="0px" y="0px"
	 viewBox="0 0 660.5 405.4" style="enable-background:new 0 0 660.5 405.4;" xml:space="preserve">
<style type="text/css">
	.st0{fill:#5266DF;}
	.st1{fill:#E8EAF6;}
	.st2{filter:url(#Adobe_OpacityMaskFilter);}
	.st3{fill-rule:evenodd;clip-rule:evenodd;fill:#FFFFFF;}
	.st4{mask:url(#b_4_);}
	.st5{fill-rule:evenodd;clip-rule:evenodd;fill:#242A45;}
	.st6{opacity:0.245;fill-rule:evenodd;clip-rule:evenodd;fill:#FFFFFF;enable-background:new    ;}
	.st7{opacity:0.104;fill-rule:evenodd;clip-rule:evenodd;fill:#FFFFFF;enable-background:new    ;}
	.st8{opacity:0.75;fill-rule:evenodd;clip-rule:evenodd;fill:#FFFFFF;enable-background:new    ;}
	.st9{opacity:0.25;fill-rule:evenodd;clip-rule:evenodd;fill:#FFFFFF;enable-background:new    ;}
	.st10{filter:url(#Adobe_OpacityMaskFilter_1_);}
	.st11{mask:url(#b_3_);}
	.st12{opacity:0.5;fill-rule:evenodd;clip-rule:evenodd;fill:#242A45;enable-background:new    ;}
	.st13{fill-rule:evenodd;clip-rule:evenodd;fill:#F98E5D;}
	.st14{opacity:0.25;fill-rule:evenodd;clip-rule:evenodd;fill:#242A45;enable-background:new    ;}
	.st15{fill-rule:evenodd;clip-rule:evenodd;fill:#6AC6D6;}
	.st16{fill-rule:evenodd;clip-rule:evenodd;fill:#A47ED4;}
	.st17{fill-rule:evenodd;clip-rule:evenodd;fill:#EC7878;}
</style>
<path class="st0" d="M386.1,405.4c95.8,0,173.4-77.6,173.4-173.4S481.8,58.6,386.1,58.6H0v346.8H386.1z"/>
<g>
	<g>
		<path id="a_1_" class="st1" d="M132.5-0.2h520c4.4,0,8,3.6,8,8v330c0,4.4-3.6,8-8,8h-520c-4.4,0-8-3.6-8-8V7.8
			C124.5,3.4,128.1-0.2,132.5-0.2z"/>
	</g>
	<defs>
		<filter id="Adobe_OpacityMaskFilter" filterUnits="userSpaceOnUse" x="121" y="0" width="547" height="59">
			<feColorMatrix  type="matrix" values="1 0 0 0 0  0 1 0 0 0  0 0 1 0 0  0 0 0 1 0"/>
		</filter>
	</defs>
	<mask maskUnits="userSpaceOnUse" x="121" y="0" width="547" height="59" id="b_4_">
		<g class="st2">
			<path id="a_5_" class="st3" d="M132.5-0.2h520c4.4,0,8,3.6,8,8v330c0,4.4-3.6,8-8,8h-520c-4.4,0-8-3.6-8-8V7.8
				C124.5,3.4,128.1-0.2,132.5-0.2z"/>
		</g>
	</mask>
	<g class="st4">
		<path class="st5" d="M121,0h547v59H121L121,0z"/>
		<g transform="translate(22.47 14.197)">
			<circle class="st6" cx="140.5" cy="15.8" r="16"/>
			<circle class="st7" cx="601.5" cy="15.8" r="16"/>
			<g transform="translate(47 6)">
				<path class="st8" d="M127.5-0.2h114c1.7,0,3,1.3,3,3l0,0c0,1.7-1.3,3-3,3h-114c-1.7,0-3-1.3-3-3l0,0
					C124.5,1.1,125.9-0.2,127.5-0.2z"/>
				<path class="st9" d="M127.5,13.8h58c1.7,0,3,1.3,3,3l0,0c0,1.7-1.3,3-3,3h-58c-1.7,0-3-1.3-3-3l0,0
					C124.5,15.1,125.9,13.8,127.5,13.8z"/>
			</g>
		</g>
	</g>
	<defs>
		<filter id="Adobe_OpacityMaskFilter_1_" filterUnits="userSpaceOnUse" x="181.5" y="92.8" width="423" height="316">
			<feColorMatrix  type="matrix" values="1 0 0 0 0  0 1 0 0 0  0 0 1 0 0  0 0 0 1 0"/>
		</filter>
	</defs>
	<mask maskUnits="userSpaceOnUse" x="181.5" y="92.8" width="423" height="316" id="b_3_">
		<g class="st10">
			<path id="a_4_" class="st3" d="M132.5-0.2h520c4.4,0,8,3.6,8,8v330c0,4.4-3.6,8-8,8h-520c-4.4,0-8-3.6-8-8V7.8
				C124.5,3.4,128.1-0.2,132.5-0.2z"/>
		</g>
	</mask>
	<g class="st11">
		<g transform="translate(57 93)">
			<path class="st3" d="M132.5-0.2h245c4.4,0,8,3.6,8,8v300c0,4.4-3.6,8-8,8h-245c-4.4,0-8-3.6-8-8V7.8
				C124.5,3.4,128.1-0.2,132.5-0.2z"/>
			<path class="st3" d="M427.5-0.2h112c4.4,0,8,3.6,8,8v300c0,4.4-3.6,8-8,8h-112c-4.4,0-8-3.6-8-8V7.8
				C419.5,3.4,423.1-0.2,427.5-0.2z"/>
			<path class="st12" d="M206,38h114c1.7,0,3,1.3,3,3l0,0c0,1.7-1.3,3-3,3H206c-1.7,0-3-1.3-3-3l0,0C203,39.3,204.3,38,206,38z"/>
		</g>
	</g>
	<g transform="translate(88.47 115.197)">
		<circle class="st13" cx="140.5" cy="25.8" r="16"/>
		<path class="st14" d="M411.5-0.2h82c1.7,0,3,1.3,3,3l0,0c0,1.7-1.3,3-3,3h-82c-1.7,0-3-1.3-3-3l0,0C408.5,1.1,409.9-0.2,411.5-0.2
			z"/>
		<path class="st14" d="M411.5,19.8h82c1.7,0,3,1.3,3,3l0,0c0,1.7-1.3,3-3,3h-82c-1.7,0-3-1.3-3-3l0,0
			C408.5,21.1,409.9,19.8,411.5,19.8z"/>
		<path class="st14" d="M411.5,39.8h82c1.7,0,3,1.3,3,3l0,0c0,1.7-1.3,3-3,3h-82c-1.7,0-3-1.3-3-3l0,0
			C408.5,41.1,409.9,39.8,411.5,39.8z"/>
		<path class="st14" d="M411.5,59.8h82c1.7,0,3,1.3,3,3l0,0c0,1.7-1.3,3-3,3h-82c-1.7,0-3-1.3-3-3l0,0
			C408.5,61.1,409.9,59.8,411.5,59.8z"/>
		<path class="st14" d="M411.5,93.8h82c1.7,0,3,1.3,3,3l0,0c0,1.7-1.3,3-3,3h-82c-1.7,0-3-1.3-3-3l0,0
			C408.5,95.1,409.9,93.8,411.5,93.8z"/>
		<path class="st14" d="M411.5,113.8h82c1.7,0,3,1.3,3,3l0,0c0,1.7-1.3,3-3,3h-82c-1.7,0-3-1.3-3-3l0,0
			C408.5,115.1,409.9,113.8,411.5,113.8z"/>
		<path class="st14" d="M411.5,133.8h82c1.7,0,3,1.3,3,3l0,0c0,1.7-1.3,3-3,3h-82c-1.7,0-3-1.3-3-3l0,0
			C408.5,135.1,409.9,133.8,411.5,133.8z"/>
		<path class="st14" d="M174.5,29.8h58c1.7,0,3,1.3,3,3l0,0c0,1.7-1.3,3-3,3h-58c-1.7,0-3-1.3-3-3l0,0
			C171.5,31.1,172.9,29.8,174.5,29.8z"/>
	</g>
	<g transform="translate(88.47 181.197)">
		<circle class="st15" cx="140.5" cy="15.8" r="16"/>
		<path class="st12" d="M174.5,5.8h114c1.7,0,3,1.3,3,3l0,0c0,1.7-1.3,3-3,3h-114c-1.7,0-3-1.3-3-3l0,0
			C171.5,7.1,172.9,5.8,174.5,5.8z"/>
		<path class="st14" d="M174.5,19.8h58c1.7,0,3,1.3,3,3l0,0c0,1.7-1.3,3-3,3h-58c-1.7,0-3-1.3-3-3l0,0
			C171.5,21.1,172.9,19.8,174.5,19.8z"/>
	</g>
	<g transform="translate(88.47 237.197)">
		<circle class="st16" cx="140.5" cy="15.8" r="16"/>
		<path class="st12" d="M174.5,5.8h114c1.7,0,3,1.3,3,3l0,0c0,1.7-1.3,3-3,3h-114c-1.7,0-3-1.3-3-3l0,0
			C171.5,7.1,172.9,5.8,174.5,5.8z"/>
		<path class="st14" d="M174.5,19.8h58c1.7,0,3,1.3,3,3l0,0c0,1.7-1.3,3-3,3h-58c-1.7,0-3-1.3-3-3l0,0
			C171.5,21.1,172.9,19.8,174.5,19.8z"/>
	</g>
	<g transform="translate(88.47 293.197)">
		<circle class="st17" cx="140.5" cy="15.8" r="16"/>
		<path class="st12" d="M174.5,5.8h114c1.7,0,3,1.3,3,3l0,0c0,1.7-1.3,3-3,3h-114c-1.7,0-3-1.3-3-3l0,0
			C171.5,7.1,172.9,5.8,174.5,5.8z"/>
		<path class="st14" d="M174.5,19.8h58c1.7,0,3,1.3,3,3l0,0c0,1.7-1.3,3-3,3h-58c-1.7,0-3-1.3-3-3l0,0
			C171.5,21.1,172.9,19.8,174.5,19.8z"/>
	</g>
</g>
</svg>
