<?xml version="1.0" encoding="utf-8"?>
<!-- Generator: Adobe Illustrator 24.0.2, SVG Export Plug-In . SVG Version: 6.00 Build 0)  -->
<svg version="1.1" id="Capa_1" xmlns="http://www.w3.org/2000/svg" xmlns:xlink="http://www.w3.org/1999/xlink" x="0px" y="0px"
	 viewBox="0 0 668 488" style="enable-background:new 0 0 668 488;" xml:space="preserve">
<style type="text/css">
	.st0{fill:#5266DF;}
	.st1{fill:#777777;}
	.st2{fill:url(#SVGID_1_);}
	.st3{opacity:0.1;fill:#2A2A2A;enable-background:new    ;}
	.st4{fill:#E8EAF6;}
	.st5{filter:url(#Adobe_OpacityMaskFilter);}
	.st6{fill-rule:evenodd;clip-rule:evenodd;fill:#FFFFFF;}
	.st7{mask:url(#f_1_);}
	.st8{fill-rule:evenodd;clip-rule:evenodd;fill:#5267DF;}
	.st9{opacity:0.245;fill-rule:evenodd;clip-rule:evenodd;fill:#FFFFFF;enable-background:new    ;}
	.st10{opacity:0.104;fill-rule:evenodd;clip-rule:evenodd;fill:#FFFFFF;enable-background:new    ;}
	.st11{opacity:0.75;fill-rule:evenodd;clip-rule:evenodd;fill:#FFFFFF;enable-background:new    ;}
	.st12{opacity:0.25;fill-rule:evenodd;clip-rule:evenodd;fill:#FFFFFF;enable-background:new    ;}
	.st13{filter:url(#Adobe_OpacityMaskFilter_1_);}
	.st14{mask:url(#f_2_);}
	.st15{opacity:0.5;fill-rule:evenodd;clip-rule:evenodd;fill:#242A45;enable-background:new    ;}
	.st16{fill-rule:evenodd;clip-rule:evenodd;fill:#F98E5D;}
	.st17{opacity:0.25;fill-rule:evenodd;clip-rule:evenodd;fill:#242A45;enable-background:new    ;}
	.st18{fill-rule:evenodd;clip-rule:evenodd;fill:#6AC6D6;}
	.st19{fill-rule:evenodd;clip-rule:evenodd;fill:#A47ED4;}
	.st20{fill-rule:evenodd;clip-rule:evenodd;fill:#EC7878;}
</style>
<path class="st0" d="M332.5,141.2c-95.8,0-173.4,77.6-173.4,173.4S236.8,488,332.5,488H668V141.2H332.5z"/>
<g transform="translate(39 9)">
	<g transform="translate(.5 .5)">
		<g>
			<g>
				<path id="c" d="M-13.5-9.5h526c14.4,0,26,11.6,26,26v333c0,14.4-11.6,26-26,26h-526c-14.4,0-26-11.6-26-26v-333
					C-39.5,2.1-27.9-9.5-13.5-9.5z"/>
			</g>
			<g>
				<path id="c_1_" class="st1" d="M-13.5-9.5h526c14.4,0,26,11.6,26,26v333c0,14.4-11.6,26-26,26h-526c-14.4,0-26-11.6-26-26v-333
					C-39.5,2.1-27.9-9.5-13.5-9.5z"/>
			</g>
		</g>
		
			<linearGradient id="SVGID_1_" gradientUnits="userSpaceOnUse" x1="57.7533" y1="611.8433" x2="56.7886" y2="612.2699" gradientTransform="matrix(574.23 0 0 -381.865 -32632.6094 233907.7344)">
			<stop  offset="0" style="stop-color:#151515"/>
			<stop  offset="1" style="stop-color:#3D3D3D"/>
		</linearGradient>
		<path class="st2" d="M-12.5-7.5h524.2c13.8,0,25,11.2,25,25v331.9c0,13.8-11.2,25-25,25H-12.5c-13.8,0-25-11.2-25-25V17.5
			C-37.5,3.7-26.3-7.5-12.5-7.5z"/>
		<g transform="translate(21.03 16.303)">
			<path class="st3" d="M-1.5-9.5H460c2.8,0,5,2.2,5,5v343.8c0,2.8-2.2,5-5,5H-1.5c-2.8,0-5-2.2-5-5V-4.5C-6.5-7.3-4.3-9.5-1.5-9.5z
				"/>
			<g>
				<path id="e_1_" class="st4" d="M-31.5-6.5h520c4.4,0,8,3.6,8,8v330c0,4.4-3.6,8-8,8h-520c-4.4,0-8-3.6-8-8V1.5
					C-39.5-2.9-35.9-6.5-31.5-6.5z"/>
			</g>
			<defs>
				<filter id="Adobe_OpacityMaskFilter" filterUnits="userSpaceOnUse" x="-43" y="-6.3" width="547" height="59">
					<feColorMatrix  type="matrix" values="1 0 0 0 0  0 1 0 0 0  0 0 1 0 0  0 0 0 1 0"/>
				</filter>
			</defs>
			<mask maskUnits="userSpaceOnUse" x="-43" y="-6.3" width="547" height="59" id="f_1_">
				<g class="st5">
					<path id="e_2_" class="st6" d="M-31.5-6.5h520c4.4,0,8,3.6,8,8v330c0,4.4-3.6,8-8,8h-520c-4.4,0-8-3.6-8-8V1.5
						C-39.5-2.9-35.9-6.5-31.5-6.5z"/>
				</g>
			</mask>
			<g class="st7">
				<path class="st8" d="M-43-6.3h547v59H-43L-43-6.3z"/>
				<g transform="translate(22.47 17.197)">
					<circle class="st9" cx="-23.5" cy="6.5" r="16"/>
					<circle class="st10" cx="437.5" cy="6.5" r="16"/>
					<g transform="translate(47 6)">
						<path class="st11" d="M-36.5-9.5h114c1.7,0,3,1.3,3,3l0,0c0,1.7-1.3,3-3,3h-114c-1.7,0-3-1.3-3-3l0,0
							C-39.5-8.2-38.2-9.5-36.5-9.5z"/>
						<path class="st12" d="M-36.5,4.5h58c1.7,0,3,1.3,3,3l0,0c0,1.7-1.3,3-3,3h-58c-1.7,0-3-1.3-3-3l0,0
							C-39.5,5.8-38.2,4.5-36.5,4.5z"/>
					</g>
				</g>
			</g>
			<defs>
				<filter id="Adobe_OpacityMaskFilter_1_" filterUnits="userSpaceOnUse" x="17.5" y="86.5" width="423" height="316">
					<feColorMatrix  type="matrix" values="1 0 0 0 0  0 1 0 0 0  0 0 1 0 0  0 0 0 1 0"/>
				</filter>
			</defs>
			<mask maskUnits="userSpaceOnUse" x="17.5" y="86.5" width="423" height="316" id="f_2_">
				<g class="st13">
					<path id="e_3_" class="st6" d="M-31.5-6.5h520c4.4,0,8,3.6,8,8v330c0,4.4-3.6,8-8,8h-520c-4.4,0-8-3.6-8-8V1.5
						C-39.5-2.9-35.9-6.5-31.5-6.5z"/>
				</g>
			</mask>
			<g class="st14">
				<g transform="translate(57 96)">
					<path class="st6" d="M-31.5-9.5h245c4.4,0,8,3.6,8,8v300c0,4.4-3.6,8-8,8h-245c-4.4,0-8-3.6-8-8v-300
						C-39.5-5.9-35.9-9.5-31.5-9.5z"/>
					<path class="st6" d="M263.5-9.5h112c4.4,0,8,3.6,8,8v300c0,4.4-3.6,8-8,8h-112c-4.4,0-8-3.6-8-8v-300
						C255.5-5.9,259.1-9.5,263.5-9.5z"/>
					<path class="st15" d="M42,28.7h114c1.7,0,3,1.3,3,3l0,0c0,1.7-1.3,3-3,3H42c-1.7,0-3-1.3-3-3l0,0C39,30,40.3,28.7,42,28.7z"/>
				</g>
			</g>
		</g>
	</g>
	<g transform="translate(110 135)">
		<circle class="st16" cx="-23.5" cy="16.5" r="16"/>
		<path class="st17" d="M247.5-9.5h82c1.7,0,3,1.3,3,3l0,0c0,1.7-1.3,3-3,3h-82c-1.7,0-3-1.3-3-3l0,0C244.5-8.2,245.8-9.5,247.5-9.5
			z"/>
		<path class="st17" d="M247.5,10.5h82c1.7,0,3,1.3,3,3l0,0c0,1.7-1.3,3-3,3h-82c-1.7,0-3-1.3-3-3l0,0
			C244.5,11.8,245.8,10.5,247.5,10.5z"/>
		<path class="st17" d="M247.5,30.5h82c1.7,0,3,1.3,3,3l0,0c0,1.7-1.3,3-3,3h-82c-1.7,0-3-1.3-3-3l0,0
			C244.5,31.8,245.8,30.5,247.5,30.5z"/>
		<path class="st17" d="M247.5,50.5h82c1.7,0,3,1.3,3,3l0,0c0,1.7-1.3,3-3,3h-82c-1.7,0-3-1.3-3-3l0,0
			C244.5,51.8,245.8,50.5,247.5,50.5z"/>
		<path class="st17" d="M247.5,84.5h82c1.7,0,3,1.3,3,3l0,0c0,1.7-1.3,3-3,3h-82c-1.7,0-3-1.3-3-3l0,0
			C244.5,85.8,245.8,84.5,247.5,84.5z"/>
		<path class="st17" d="M247.5,104.5h82c1.7,0,3,1.3,3,3l0,0c0,1.7-1.3,3-3,3h-82c-1.7,0-3-1.3-3-3l0,0
			C244.5,105.8,245.8,104.5,247.5,104.5z"/>
		<path class="st17" d="M247.5,124.5h82c1.7,0,3,1.3,3,3l0,0c0,1.7-1.3,3-3,3h-82c-1.7,0-3-1.3-3-3l0,0
			C244.5,125.8,245.8,124.5,247.5,124.5z"/>
		<path class="st17" d="M10.5,20.5h58c1.7,0,3,1.3,3,3l0,0c0,1.7-1.3,3-3,3h-58c-1.7,0-3-1.3-3-3l0,0C7.5,21.8,8.8,20.5,10.5,20.5z"
			/>
	</g>
	<g transform="translate(110 201)">
		<circle class="st18" cx="-23.5" cy="6.5" r="16"/>
		<path class="st15" d="M10.5-3.5h114c1.7,0,3,1.3,3,3l0,0c0,1.7-1.3,3-3,3h-114c-1.7,0-3-1.3-3-3l0,0C7.5-2.2,8.8-3.5,10.5-3.5z"/>
		<path class="st17" d="M10.5,10.5h58c1.7,0,3,1.3,3,3l0,0c0,1.7-1.3,3-3,3h-58c-1.7,0-3-1.3-3-3l0,0C7.5,11.8,8.8,10.5,10.5,10.5z"
			/>
	</g>
	<g transform="translate(110 257)">
		<circle class="st19" cx="-23.5" cy="6.5" r="16"/>
		<path class="st15" d="M10.5-3.5h114c1.7,0,3,1.3,3,3l0,0c0,1.7-1.3,3-3,3h-114c-1.7,0-3-1.3-3-3l0,0C7.5-2.2,8.8-3.5,10.5-3.5z"/>
		<path class="st17" d="M10.5,10.5h58c1.7,0,3,1.3,3,3l0,0c0,1.7-1.3,3-3,3h-58c-1.7,0-3-1.3-3-3l0,0C7.5,11.8,8.8,10.5,10.5,10.5z"
			/>
	</g>
	<g transform="translate(110 313)">
		<circle class="st20" cx="-23.5" cy="6.5" r="16"/>
		<path class="st15" d="M10.5-3.5h114c1.7,0,3,1.3,3,3l0,0c0,1.7-1.3,3-3,3h-114c-1.7,0-3-1.3-3-3l0,0C7.5-2.2,8.8-3.5,10.5-3.5z"/>
		<path class="st17" d="M10.5,10.5h58c1.7,0,3,1.3,3,3l0,0c0,1.7-1.3,3-3,3h-58c-1.7,0-3-1.3-3-3l0,0C7.5,11.8,8.8,10.5,10.5,10.5z"
			/>
	</g>
</g>
</svg>
